<svg width="56" height="56" viewBox="0 0 56 56" fill="none" xmlns="http://www.w3.org/2000/svg">
<g clip-path="url(#clip0_1_695)">
<path d="M-7.1031e-07 19.25L4.2 19.25L8.4 24.25L23.8 24.25L16.8 2.99999L22.4 2.99999L36.4 24.25L51.8 24.25C52.9667 24.25 53.9583 24.6146 54.775 25.3437C55.5917 26.0729 56 26.9583 56 28C56 29.0417 55.5917 29.9271 54.775 30.6562C53.9583 31.3854 52.9667 31.75 51.8 31.75L36.4 31.75L22.4 53L16.8 53L23.8 31.75L8.4 31.75L4.2 36.75L-1.47526e-06 36.75L2.8 28L-7.1031e-07 19.25Z" fill="#1E7EFE"/>
</g>
<defs>
<clipPath id="clip0_1_695">
<rect width="56" height="56" fill="white" transform="translate(56 -7.62939e-06) rotate(90)"/>
</clipPath>
</defs>
</svg>
